<svg width="55" height="55" viewBox="0 0 55 55" fill="none" xmlns="http://www.w3.org/2000/svg">
<g clip-path="url(#clip0_575_11744)">
<path d="M49.8438 10.3125H44.6875C44.2317 10.3125 43.7945 10.4936 43.4722 10.8159C43.1499 11.1382 42.9688 11.5754 42.9688 12.0312C42.9688 12.4871 43.1499 12.9243 43.4722 13.2466C43.7945 13.5689 44.2317 13.75 44.6875 13.75H49.8438C50.2996 13.75 50.7368 13.9311 51.0591 14.2534C51.3814 14.5757 51.5625 15.0129 51.5625 15.4688V24.3564C51.5627 24.5824 51.5183 24.8062 51.4319 25.015C51.3455 25.2238 51.2188 25.4135 51.0589 25.5733L46.1983 30.4339C46.0385 30.5937 45.8488 30.7205 45.64 30.8069C45.4312 30.8933 45.2074 30.9377 44.9814 30.9375H10.0186C9.79264 30.9377 9.56884 30.8933 9.36004 30.8069C9.15123 30.7205 8.96151 30.5937 8.80174 30.4339L3.94112 25.5733C3.7813 25.4135 3.65456 25.2238 3.56815 25.015C3.48174 24.8062 3.43735 24.5824 3.43753 24.3564V15.4688C3.43753 15.0129 3.61861 14.5757 3.94094 14.2534C4.26326 13.9311 4.70044 13.75 5.15628 13.75H37.8125C38.2684 13.75 38.7055 13.5689 39.0279 13.2466C39.3502 12.9243 39.5313 12.4871 39.5313 12.0312V6.875C39.5313 5.50748 38.988 4.19597 38.021 3.22898C37.0541 2.262 35.7425 1.71875 34.375 1.71875H20.625C19.2575 1.71875 17.946 2.262 16.979 3.22898C16.012 4.19597 15.4688 5.50748 15.4688 6.875V10.3125H5.15628C3.78875 10.3125 2.47724 10.8557 1.51026 11.8227C0.543272 12.7897 2.59295e-05 14.1012 2.59295e-05 15.4688V24.3564C-0.00213104 25.0341 0.130304 25.7054 0.389648 26.3315C0.648993 26.9576 1.03008 27.5259 1.51081 28.0036L6.37143 32.8642C6.84908 33.3449 7.41743 33.726 8.04351 33.9854C8.6696 34.2447 9.34095 34.3772 10.0186 34.375H44.9814C45.6591 34.3772 46.3305 34.2447 46.9565 33.9854C47.5826 33.726 48.151 33.3449 48.6286 32.8642L49.8438 31.6491V48.125C49.8438 48.5808 49.6627 49.018 49.3404 49.3403C49.018 49.6627 48.5809 49.8438 48.125 49.8438H6.87503C6.41919 49.8438 5.98201 49.6627 5.65969 49.3403C5.33736 49.018 5.15628 48.5808 5.15628 48.125V36.0938C5.15628 35.6379 4.97519 35.2007 4.65287 34.8784C4.33054 34.5561 3.89337 34.375 3.43753 34.375C2.98168 34.375 2.54451 34.5561 2.22219 34.8784C1.89986 35.2007 1.71878 35.6379 1.71878 36.0938V48.125C1.72286 49.4913 2.26741 50.8004 3.23351 51.7665C4.19962 52.7326 5.50876 53.2772 6.87503 53.2812H48.125C49.4913 53.2772 50.8004 52.7326 51.7665 51.7665C52.7326 50.8004 53.2772 49.4913 53.2813 48.125V28.2116L53.4892 28.0036C53.97 27.5259 54.3511 26.9576 54.6104 26.3315C54.8697 25.7054 55.0022 25.0341 55 24.3564V15.4688C55 14.1012 54.4568 12.7897 53.4898 11.8227C52.5228 10.8557 51.2113 10.3125 49.8438 10.3125ZM18.9063 6.875C18.9063 6.41916 19.0874 5.98199 19.4097 5.65966C19.732 5.33733 20.1692 5.15625 20.625 5.15625H34.375C34.8309 5.15625 35.268 5.33733 35.5904 5.65966C35.9127 5.98199 36.0938 6.41916 36.0938 6.875V10.3125H18.9063V6.875Z" fill="#1D53CF"/>
<path d="M17.1875 27.5H13.75C12.8008 27.5 12.0312 28.2695 12.0312 29.2188V36.0938C12.0312 37.043 12.8008 37.8125 13.75 37.8125H17.1875C18.1367 37.8125 18.9062 37.043 18.9062 36.0938V29.2188C18.9062 28.2695 18.1367 27.5 17.1875 27.5Z" fill="#1D53CF"/>
<path d="M41.25 27.5H37.8125C36.8633 27.5 36.0938 28.2695 36.0938 29.2188V36.0938C36.0938 37.043 36.8633 37.8125 37.8125 37.8125H41.25C42.1992 37.8125 42.9688 37.043 42.9688 36.0938V29.2188C42.9688 28.2695 42.1992 27.5 41.25 27.5Z" fill="#1D53CF"/>
</g>
<defs>
<clipPath id="clip0_575_11744">
<rect width="55" height="55" fill="white"/>
</clipPath>
</defs>
</svg>
