<svg width="78" height="75" viewBox="0 0 78 75" fill="none" xmlns="http://www.w3.org/2000/svg">
<path d="M42.4125 50.7812H36.3025C31.98 50.7812 28.4375 47.2812 28.4375 42.9687C28.4375 41.6875 29.5425 40.625 30.875 40.625C32.2075 40.625 33.3125 41.6875 33.3125 42.9687C33.3125 44.6875 34.645 46.0937 36.3025 46.0937H42.4125C43.68 46.0937 44.6875 45 44.6875 43.6562C44.6875 41.9687 44.2 41.7187 43.095 41.3437L33.3125 38.0625C31.2325 37.3437 28.4375 35.9062 28.4375 31.3125C28.4375 27.4062 31.655 24.1875 35.5875 24.1875H41.6975C46.02 24.1875 49.5625 27.6875 49.5625 32C49.5625 33.2813 48.4575 34.3438 47.125 34.3438C45.7925 34.3438 44.6875 33.2813 44.6875 32C44.6875 30.2813 43.355 28.875 41.6975 28.875H35.5875C34.32 28.875 33.3125 29.9687 33.3125 31.3125C33.3125 33 33.8 33.25 34.905 33.625L44.6875 36.9062C46.7675 37.625 49.5625 39.0625 49.5625 43.6562C49.5625 47.5937 46.345 50.7812 42.4125 50.7812Z" fill="#5580E9"/>
<path d="M39 53.9062C37.6675 53.9062 36.5625 52.8438 36.5625 51.5625V23.4375C36.5625 22.1562 37.6675 21.0938 39 21.0938C40.3325 21.0938 41.4375 22.1562 41.4375 23.4375V51.5625C41.4375 52.8438 40.3325 53.9062 39 53.9062Z" fill="#5580E9"/>
<path d="M39 71.0938C19.7275 71.0938 4.0625 56.0312 4.0625 37.5C4.0625 18.9688 19.7275 3.90625 39 3.90625C40.3325 3.90625 41.4375 4.96875 41.4375 6.25C41.4375 7.53125 40.3325 8.59375 39 8.59375C22.425 8.59375 8.9375 21.5625 8.9375 37.5C8.9375 53.4375 22.425 66.4062 39 66.4062C55.575 66.4062 69.0625 53.4375 69.0625 37.5C69.0625 36.2188 70.1675 35.1562 71.5 35.1562C72.8325 35.1562 73.9375 36.2188 73.9375 37.5C73.9375 56.0312 58.2725 71.0938 39 71.0938Z" fill="#5580E9"/>
<path d="M71.5 21.0938C70.1675 21.0938 69.0625 20.0312 69.0625 18.75V8.59375H58.5C57.1675 8.59375 56.0625 7.53125 56.0625 6.25C56.0625 4.96875 57.1675 3.90625 58.5 3.90625H71.5C72.8325 3.90625 73.9375 4.96875 73.9375 6.25V18.75C73.9375 20.0312 72.8325 21.0938 71.5 21.0938Z" fill="#5580E9"/>
<path d="M55.2497 24.2187C54.6322 24.2187 54.0147 24 53.5272 23.5312C52.5847 22.625 52.5847 21.125 53.5272 20.2188L69.7772 4.59375C70.7197 3.6875 72.2797 3.6875 73.2222 4.59375C74.1647 5.5 74.1647 6.99999 73.2222 7.90624L56.9722 23.5312C56.4847 24 55.8672 24.2187 55.2497 24.2187Z" fill="#5580E9"/>
<rect x="0.5" y="0.5" width="77" height="74" stroke="white"/>
</svg>
