<svg width="105" height="231" viewBox="0 0 105 231" fill="none" xmlns="http://www.w3.org/2000/svg">
<path d="M81.6392 212.663C81.6392 212.663 85.5122 216.191 84.7542 218.696C83.9962 221.201 80.5077 222.873 80.0346 225.936C79.5615 228.999 77.6748 230.668 75.9762 230.668H67.8759C67.8759 230.668 66.6254 228.513 69.6437 227.864C72.6619 227.215 73.7934 223.616 73.6164 220.273C73.4393 216.931 73.893 212.478 73.893 212.478L80.3112 210.995L81.6392 212.663Z" fill="#233862"/>
<path d="M34.1721 221.784C34.1721 221.784 34.8665 229.811 33.1679 230.646L11.4233 230.601C11.4233 230.601 11.4233 228.096 14.9146 227.538C18.4059 226.98 24.542 224.941 25.5822 220.392C26.6224 215.842 34.1721 221.784 34.1721 221.784Z" fill="#233862"/>
<path d="M15.8027 108.418C15.8027 108.418 16.9481 122.486 18.2926 139.397C20.124 162.368 22.3261 190.584 22.5446 195.929C22.9209 205.211 24.4341 220.058 24.4341 220.058C24.4341 220.058 28.0305 223.585 35.193 222.099C35.193 222.099 41.5891 200.904 43.4149 178.477C43.4426 178.11 43.4703 177.74 43.5007 177.372C45.1993 154.542 47.8413 106.47 47.8413 106.47L15.8027 108.418Z" fill="#2A4E96"/>
<path d="M15.8027 108.418C15.8027 108.418 16.9481 122.486 18.2926 139.397L43.4149 178.477C43.4426 178.11 43.4703 177.74 43.5007 177.372C45.1993 154.542 47.8413 106.47 47.8413 106.47L15.8027 108.418Z" fill="#233862"/>
<path d="M21.04 110.089C21.04 110.089 41.7112 161.036 55.3029 184.98C68.8946 208.923 73.144 215.605 73.144 215.605C73.144 215.605 80.9316 212.542 81.6398 210.453C81.6398 210.453 76.4416 164.229 67.3398 152.962C62.197 146.609 57.7596 132.469 57.9809 125.784C58.3654 114.257 54.0303 100.899 54.0303 100.899L21.04 110.089Z" fill="#2A4E96"/>
<path d="M4.53211 110.848C4.53211 110.848 0.659037 116.066 0.382389 117.459C0.10574 118.851 -0.234553 123.812 0.227449 125.279C0.689452 126.745 3.09626 120.936 4.07006 120.268C5.04387 119.599 3.46148 122.549 3.84049 122.997C4.2195 123.444 6.07857 121.185 6.81169 120.414C7.54481 119.643 7.19899 115.779 7.98191 113.428C8.76482 111.078 4.53211 110.848 4.53211 110.848Z" fill="#FFB27D"/>
<path d="M21.554 35.0018C21.554 35.0018 16.3392 83.4826 15.8745 84.8637C15.7721 85.1648 15.3626 86.7006 14.7872 88.9077C13.9572 92.0594 12.8064 96.5923 11.7054 100.899C10.0455 107.409 8.25279 113.053 8.25279 113.053C8.25279 113.053 7.46436 113.561 5.56655 113.398C5.16635 113.348 4.78123 113.214 4.43686 113.005C4.09249 112.795 3.79669 112.515 3.56909 112.183C3.56909 112.183 3.76002 88.3801 4.92471 82.955C6.0894 77.5299 9.81585 44.1975 11.6998 39.7115C13.5838 35.2256 21.554 35.0018 21.554 35.0018Z" fill="white"/>
<path d="M14.7873 88.9074C13.9574 92.0592 12.8065 96.5921 11.7055 100.899C10.6487 97.8138 9.91799 94.6273 9.52544 91.3908C8.47695 83.3802 11.6999 66.2761 11.6999 66.2761L14.7873 88.9074Z" fill="#DCEAFF"/>
<path d="M56.091 109.531C48.6049 113.746 16.5303 113.652 15.0447 110.343C11.725 102.951 10.895 65.3894 12.4608 53.868C12.4608 53.868 13.2714 36.1618 15.0447 36.9407C26.8936 31.5073 46.068 36.4435 46.068 36.4435C51.2386 37.9628 50.796 49.7605 52.2373 66.3286C52.4227 68.4611 52.6302 70.6875 52.8598 72.9857C53.8806 83.2062 55.3662 94.9707 57.6209 107.368C57.773 108.183 57.2031 108.915 56.091 109.531Z" fill="white"/>
<path d="M37.2153 34.4521C37.0161 37.6177 32.8803 37.2586 27.9034 36.1261C22.9265 34.9935 24.7329 32.0655 24.7329 32.0655C24.7329 32.0655 24.8049 29.817 25.1203 27.1183C25.2337 26.1404 25.3775 25.0963 25.5656 24.0798C25.6541 23.5826 25.751 23.0964 25.8644 22.624C26.5145 19.8369 35.7988 22.5274 35.7324 23.2759C35.5554 25.3062 37.0134 31.9633 37.2153 34.4521Z" fill="#FFB27D"/>
<path d="M26.5478 39.9793L26.155 35.6039L31.6603 36.6397L29.5412 40.5456L26.5478 39.9793Z" fill="#233862"/>
<path d="M24.8438 30.0048L21.5544 35.0017C21.6231 36.0381 21.9135 37.0477 22.406 37.9626C22.8985 38.8775 23.5817 39.6763 24.4095 40.3053L28.9078 36.1232C28.9078 36.1232 26.0002 35.0155 24.8438 30.0048Z" fill="#DCEAFF"/>
<path d="M28.916 36.1232C28.916 36.1232 29.8483 39.4628 31.6493 40.9959C31.6493 40.9959 38.6762 39.1092 40.3499 35.5183L36.6899 30.8003C36.6899 30.8003 36.5045 34.3691 28.916 36.1232Z" fill="#DCEAFF"/>
<path d="M35.7795 24.8559C32.5634 26.7422 28.8212 27.5361 25.1147 27.1182C25.2282 26.1404 25.3721 25.0962 25.5602 24.0797C26.783 23.7814 27.8065 23.5963 27.8065 23.5963L35.7795 24.8559Z" fill="#E2915A"/>
<path d="M38.6183 21.4832C36.4328 27.4884 28.457 25.9554 25.0625 24.9913C24.1053 24.7151 23.5133 24.4941 23.5133 24.4941C22.4648 24.019 22.13 22.1904 22.2324 19.8811C22.4122 15.3096 24.2215 8.85412 25.2589 7.29895C26.8192 4.9593 29.4086 2.58098 37.1548 5.89295C44.9009 9.20492 41.4207 13.7875 38.6183 21.4832Z" fill="#FFB27D"/>
<path d="M44.5935 18.3977C42.1507 20.3866 36.9055 24.0659 36.9055 24.0659C36.9055 24.0659 37.4892 23.3781 38.203 21.392C38.2858 21.0985 38.3185 20.7932 38.2998 20.4888C38.2647 19.5181 38.5137 18.5582 39.0163 17.7265C39.3345 17.21 39.4507 16.6713 39.0468 16.2901C38.3828 15.6658 37.2513 16.2404 36.5099 16.7487C36.2706 16.9129 35.9888 17.0042 35.6986 17.0116C35.4083 17.0189 35.1222 16.942 34.8749 16.7901C32.789 15.4863 35.0934 13.1991 33.3976 11.2793C31.7017 9.35955 24.3623 9.11095 24.6583 7.91488C22.1519 6.5006 23.7315 1.28542 23.7758 1.00919C26.4962 1.14932 29.2223 0.879275 31.8622 0.208137C35.5056 -0.706177 39.5226 1.6307 40.7952 2.59473C40.7961 2.2865 40.726 1.98219 40.5904 1.70529C40.9097 2.02012 41.1059 2.43838 41.1437 2.88479C41.1991 2.94003 41.224 2.9787 41.2074 2.98975C41.6059 2.98071 42.0005 3.07088 42.3555 3.25216C42.3555 3.25216 42.0456 3.15548 41.899 3.34055C41.8816 3.36153 41.8599 3.37849 41.8354 3.39027C46.6905 6.80721 46.6214 16.7459 44.5935 18.3977Z" fill="#0A0A43"/>
<path d="M27.0843 20.6156C27.0843 20.6156 26.6915 21.3697 24.719 20.7427C24.719 20.7427 23.0591 20.2178 23.3358 19.345C23.3386 19.345 25.1256 19.1406 27.0843 20.6156Z" fill="white"/>
<path d="M26.5482 39.9794C26.5482 39.9794 22.1551 95.41 22.216 100.029C22.2768 104.647 27.0849 109.531 27.0849 109.531C27.0849 109.531 30.9138 105.343 31.6607 100.926C32.4077 96.5094 29.5416 40.5484 29.5416 40.5484L26.5482 39.9794Z" fill="#2A4E96"/>
<path d="M56.0911 109.531C42.7373 107.597 46.5634 63.4836 47.6119 63.3095C48.6604 63.1355 52.5002 71.1986 52.5002 71.1986L52.8654 72.9858C53.8863 83.2062 55.3719 94.9708 57.6265 107.368C57.7732 108.183 57.2033 108.915 56.0911 109.531Z" fill="#DCEAFF"/>
<path d="M95.3445 142.402L67.107 150.606C65.3348 151.115 63.4329 150.903 61.8167 150.016C60.2005 149.13 59.0013 147.641 58.4812 145.874L54.9207 133.656C54.4109 131.887 54.6232 129.988 55.5111 128.374C56.3991 126.76 57.8905 125.563 59.6596 125.044L87.8944 116.84C89.6666 116.33 91.5689 116.541 93.1857 117.427C94.8025 118.313 96.0023 119.802 96.523 121.569L100.083 133.786C100.593 135.556 100.381 137.456 99.4933 139.07C98.6054 140.684 97.1139 141.882 95.3445 142.402Z" fill="#E6FFE9"/>
<path d="M58.6414 132.568L62.2378 144.927C62.5723 146.065 63.1915 147.1 64.037 147.933C64.8825 148.767 65.9265 149.372 67.0709 149.692C67.8267 149.905 68.6136 149.988 69.3975 149.937C69.9041 149.9 70.4051 149.808 70.8914 149.661L99.0764 141.471C100.852 140.95 102.349 139.748 103.241 138.128C104.132 136.508 104.344 134.601 103.832 132.825L100.235 120.467C99.7134 118.693 98.5095 117.199 96.887 116.309C95.2645 115.419 93.3552 115.207 91.5764 115.718L81.8716 118.539L81.1052 115.901C80.9332 115.315 80.5359 114.822 80.0003 114.528C79.4647 114.235 78.8345 114.165 78.2475 114.334L77.1851 114.644L71.2814 116.359L69.8125 116.787C69.2265 116.959 68.7323 117.355 68.4382 117.889C68.1442 118.423 68.0743 119.052 68.2439 119.638L69.0129 122.276L63.3887 123.909C63.1691 123.971 62.953 124.046 62.7414 124.132C61.7094 124.55 60.792 125.207 60.065 126.049C59.3381 126.891 58.8225 127.894 58.5612 128.975C58.2708 130.159 58.2985 131.398 58.6414 132.568ZM80.4966 118.953L70.4128 121.898L69.6465 119.26C69.5831 119.041 69.6089 118.807 69.7183 118.607C69.8278 118.408 70.0118 118.26 70.2302 118.196L72.7643 117.461L77.4092 116.108L78.6652 115.746C78.7478 115.722 78.8337 115.711 78.9197 115.713C79.1029 115.716 79.2804 115.777 79.4262 115.888C79.572 115.999 79.6785 116.153 79.7303 116.329L80.4966 118.953Z" fill="#07DD90"/>
<path d="M72.0315 111.064C72.0315 111.064 71.1573 118.373 72.7978 118.268C74.4384 118.163 78.4553 117.378 78.7292 116.119C79.003 114.859 75.6528 108.987 75.6528 108.987L72.0315 111.064Z" fill="#FFB27D"/>
<path d="M72.2418 111.045C72.2418 111.045 70.9858 112.603 70.8779 113.829C70.77 115.056 70.1725 117.199 70.734 117.337C71.2956 117.475 72.3248 114.669 72.3248 114.669L72.2418 111.045Z" fill="#FFB27D"/>
<path d="M46.0681 36.4436C46.0681 36.4436 53.1586 38.1396 58.7662 48.8932C64.3739 59.6467 68.8003 81.3361 71.4921 87.0623C74.1839 92.7885 76.1951 109.964 76.1951 109.964C76.1951 109.964 75.7773 110.818 74.3332 111.13C73.5865 111.276 72.8241 111.325 72.0647 111.276C72.0647 111.276 61.5217 94.4266 60.0084 88.3496C59.1784 85.0708 46.6795 58.8291 46.6795 58.8291L46.0681 36.4436Z" fill="white"/>
</svg>
