<svg width="55" height="56" viewBox="0 0 55 56" fill="none" xmlns="http://www.w3.org/2000/svg">
<path d="M48.6064 37.014C47.1485 40.4618 44.8682 43.4999 41.9648 45.8628C39.0615 48.2257 35.6235 49.8414 31.9515 50.5687C28.2795 51.296 24.4852 51.1127 20.9004 50.0348C17.3156 48.9569 14.0495 47.0173 11.3874 44.3855C8.72543 41.7537 6.74864 38.5099 5.6299 34.9376C4.51115 31.3654 4.28452 27.5735 4.96981 23.8934C5.6551 20.2133 7.23145 16.7571 9.56105 13.827C11.8906 10.8969 14.9025 8.58203 18.3334 7.08484" stroke="#1D53CF" stroke-width="3" stroke-linecap="round" stroke-linejoin="round"/>
<path d="M50.4167 28.0994C50.4167 25.09 49.8239 22.11 48.6722 19.3296C47.5206 16.5492 45.8325 14.0229 43.7045 11.8949C41.5765 9.7669 39.0502 8.07887 36.2698 6.9272C33.4895 5.77553 30.5095 5.18277 27.5 5.18277V28.0994H50.4167Z" stroke="#1D53CF" stroke-width="3" stroke-linecap="round" stroke-linejoin="round"/>
</svg>
