<svg width="49" height="49" viewBox="0 0 49 49" fill="none" xmlns="http://www.w3.org/2000/svg">
<path d="M46.9999 23.25C47.0085 26.5497 46.2376 29.8047 44.7499 32.75C42.986 36.2794 40.2743 39.2479 36.9186 41.3232C33.5628 43.3985 29.6956 44.4985 25.75 44.5C22.4503 44.5086 19.1953 43.7377 16.25 42.25L2 47L6.74999 32.75C5.26232 29.8047 4.49139 26.5497 4.5 23.25C4.50152 19.3044 5.60152 15.4372 7.67679 12.0814C9.75205 8.72568 12.7206 6.01398 16.25 4.25007C19.1953 2.7624 22.4503 1.99147 25.75 2.00007H27C32.2108 2.28755 37.1326 4.48697 40.8228 8.17721C44.513 11.8674 46.7125 16.7892 46.9999 22V23.25Z" stroke="#1D53CF" stroke-width="3" stroke-linecap="round" stroke-linejoin="round"/>
</svg>
