<svg width="80" height="80" viewBox="0 0 80 80" fill="none" xmlns="http://www.w3.org/2000/svg">
<path d="M48.3334 53.9667H31.6667C30.3001 53.9667 29.1667 52.8333 29.1667 51.4667C29.1667 50.1 30.3001 48.9667 31.6667 48.9667H48.3334C49.7001 48.9667 50.8334 50.1 50.8334 51.4667C50.8334 52.8333 49.7001 53.9667 48.3334 53.9667Z" fill="#5580E9"/>
<path d="M40 62.5C38.6333 62.5 37.5 61.3667 37.5 60V43.3334C37.5 41.9667 38.6333 40.8334 40 40.8334C41.3667 40.8334 42.5 41.9667 42.5 43.3334V60C42.5 61.3667 41.3667 62.5 40 62.5Z" fill="#5580E9"/>
<path d="M17.3332 34.8667C16.6999 34.8667 16.0665 34.6 15.5665 34.1334C14.8665 33.4334 14.6332 32.3334 15.0332 31.4L21.2332 16.6C21.3665 16.3 21.4332 16.1 21.5332 15.9334C26.4665 4.5667 32.7666 1.80004 43.8999 6.0667C44.5332 6.30004 45.0332 6.80004 45.2999 7.43337C45.5665 8.0667 45.5665 8.7667 45.2999 9.40004L35.5332 32.0667C35.1332 32.9667 34.2332 33.5667 33.2332 33.5667H23.7332C21.8332 33.5667 20.0332 33.9334 18.2999 34.6667C17.9999 34.8 17.6665 34.8667 17.3332 34.8667ZM35.3665 9.1667C31.2332 9.1667 28.6999 11.8667 26.0665 18C26.0332 18.1 25.9665 18.2 25.9332 18.3L21.5665 28.6667C22.2999 28.6 22.9999 28.5667 23.7332 28.5667H31.5665L39.5999 9.90004C38.0332 9.40004 36.6332 9.1667 35.3665 9.1667Z" fill="#5580E9"/>
<path d="M60.9666 34.2334C60.7333 34.2334 60.4666 34.2 60.2333 34.1334C58.9999 33.7667 57.6333 33.5667 56.2333 33.5667H33.2333C32.3999 33.5667 31.5999 33.1334 31.1333 32.4334C30.6999 31.7334 30.5999 30.8334 30.9333 30.0667L40.5999 7.63337C41.0999 6.43337 42.5666 5.63337 43.7999 6.03337C44.1999 6.16671 44.5666 6.33337 44.9666 6.50004L52.8333 9.80004C57.4333 11.7 60.4999 13.7 62.4999 16.1C62.8999 16.5667 63.2333 17.0667 63.5333 17.5667C63.8999 18.1334 64.2333 18.8334 64.4666 19.5334C64.5666 19.7667 64.7333 20.2 64.8333 20.6667C65.7666 23.8 65.2999 27.7 63.2999 32.7C62.8999 33.6334 61.9666 34.2334 60.9666 34.2334ZM37.0333 28.5667H56.2666C57.3333 28.5667 58.3666 28.6667 59.3999 28.8334C60.3333 25.9334 60.5333 23.7 59.9999 21.9C59.9333 21.6 59.8666 21.4667 59.8333 21.3334C59.6333 20.8 59.4999 20.5 59.3333 20.2334C59.0999 19.8667 58.9333 19.5667 58.6666 19.2667C57.2333 17.5334 54.6999 15.9334 50.9333 14.4L44.3333 11.6334L37.0333 28.5667Z" fill="#5580E9"/>
<path d="M53 75.8333H27C26.0667 75.8333 25.2 75.7667 24.3333 75.6667C12.6333 74.8667 5.96667 68.2 5.16667 56.3667C5.06667 55.6333 5 54.7333 5 53.8333V47.3333C5 39.8333 9.46667 33.0667 16.3667 30.0667C18.7 29.0667 21.2 28.5667 23.7667 28.5667H56.3C58.2 28.5667 60.0333 28.8333 61.7333 29.3667C69.5667 31.7333 75.0667 39.1333 75.0667 47.3333V53.8333C75.0667 54.5667 75.0333 55.2667 75 55.9333C74.2667 68.9667 66.6667 75.8333 53 75.8333ZM23.7333 33.5667C21.8333 33.5667 20.0333 33.9333 18.3 34.6667C13.2333 36.8667 9.96667 41.8333 9.96667 47.3333V53.8333C9.96667 54.5333 10.0333 55.2333 10.1 55.9C10.7333 65.4 15.4 70.0667 24.7667 70.7C25.6 70.8 26.2667 70.8667 26.9667 70.8667H52.9667C63.9667 70.8667 69.3667 66.0333 69.9 55.7C69.9333 55.1 69.9667 54.5 69.9667 53.8333V47.3333C69.9667 41.3 65.9333 35.9 60.2 34.1333C58.9667 33.7667 57.6 33.5667 56.2 33.5667H23.7333Z" fill="#5580E9"/>
<path d="M7.46655 49.8333C6.09989 49.8333 4.96655 48.6999 4.96655 47.3333V37.5666C4.96655 27.0666 12.3999 17.9999 22.6666 15.9999C23.5666 15.8333 24.4999 16.1666 25.0999 16.8666C25.6666 17.5666 25.8332 18.5666 25.4666 19.3999L19.6332 33.3333C19.3666 33.9333 18.8999 34.3999 18.3332 34.6666C13.2666 36.8666 9.99989 41.8333 9.99989 47.3333C9.96655 48.6999 8.86655 49.8333 7.46655 49.8333ZM18.6666 22.7333C14.3999 25.1333 11.2999 29.3333 10.3332 34.2333C11.7999 32.7333 13.4999 31.4666 15.4332 30.5333L18.6666 22.7333Z" fill="#5580E9"/>
<path d="M72.5333 49.8333C71.1667 49.8333 70.0333 48.7 70.0333 47.3333C70.0333 41.3 66 35.9 60.2667 34.1333C59.6 33.9333 59.0333 33.4667 58.7333 32.8333C58.4333 32.2 58.4 31.4667 58.6667 30.8333C60.2333 26.9333 60.6333 24.1 60 21.9C59.9333 21.6 59.8667 21.4667 59.8333 21.3333C59.4 20.3667 59.6333 19.2333 60.4 18.5C61.1667 17.7667 62.3333 17.6 63.2667 18.1C70.5333 21.9 75.0333 29.3667 75.0333 37.5667V47.3333C75.0333 48.7 73.9 49.8333 72.5333 49.8333ZM64.1667 30.3C66.2667 31.2667 68.1333 32.6333 69.7 34.2667C69.0667 31 67.5 28.0333 65.2 25.7C65.0333 27.1 64.7 28.6333 64.1667 30.3Z" fill="#5580E9"/>
<rect x="0.5" y="0.5" width="79" height="79" stroke="white"/>
</svg>
