<svg width="78" height="76" viewBox="0 0 78 76" fill="none" xmlns="http://www.w3.org/2000/svg">
<path d="M35.23 42.8767H30.355C26.6175 42.8767 23.595 39.8367 23.595 36.0684C23.595 34.7701 24.7 33.6934 26.0325 33.6934C27.365 33.6934 28.47 34.7701 28.47 36.0684C28.47 37.2084 29.315 38.1267 30.355 38.1267H35.23C35.9775 38.1267 36.5625 37.4617 36.5625 36.6384C36.5625 35.53 36.3675 35.4667 35.62 35.2134L27.7875 32.5534C24.96 31.6034 23.5625 29.6717 23.5625 26.6634C23.5625 23.2434 26.3575 20.425 29.77 20.425H34.645C38.3825 20.425 41.405 23.4651 41.405 27.2334C41.405 28.5317 40.3 29.6084 38.9675 29.6084C37.635 29.6084 36.53 28.5317 36.53 27.2334C36.53 26.0934 35.685 25.175 34.645 25.175H29.77C29.0225 25.175 28.4375 25.84 28.4375 26.6634C28.4375 27.7717 28.6325 27.835 29.38 28.0884L37.2125 30.7484C40.04 31.7301 41.405 33.6617 41.405 36.6384C41.4375 40.09 38.6425 42.8767 35.23 42.8767Z" fill="#5580E9"/>
<path d="M32.5 45.41C31.1675 45.41 30.0625 44.3333 30.0625 43.035V40.6916C30.0625 39.3933 31.1675 38.3167 32.5 38.3167C33.8325 38.3167 34.9375 39.3933 34.9375 40.6916V43.035C34.9375 44.365 33.8325 45.41 32.5 45.41Z" fill="#5580E9"/>
<path d="M32.5 25.1433C31.1675 25.1433 30.0625 24.0667 30.0625 22.7683V20.2983C30.0625 19 31.1675 17.9233 32.5 17.9233C33.8325 17.9233 34.9375 19 34.9375 20.2983V22.7683C34.9375 24.0667 33.8325 25.1433 32.5 25.1433Z" fill="#5580E9"/>
<path d="M32.4675 59.28C16.8025 59.28 4.0625 46.8666 4.0625 31.6033C4.0625 16.34 16.8025 3.92664 32.4675 3.92664C48.1325 3.92664 60.8725 16.34 60.8725 31.6033C60.8725 46.8666 48.1 59.28 32.4675 59.28ZM32.4675 8.7083C19.5 8.7083 8.9375 19 8.9375 31.635C8.9375 44.27 19.5 54.53 32.4675 54.53C45.435 54.53 55.9975 44.2383 55.9975 31.6033C55.9975 18.9683 45.435 8.7083 32.4675 8.7083Z" fill="#5580E9"/>
<path d="M55.3151 71.9467C49.3026 71.9467 43.6476 69.0967 40.1701 64.2834C39.3901 63.2067 39.6501 61.7184 40.7551 60.9584C41.8601 60.1984 43.3876 60.4517 44.1676 61.5284C46.7351 65.075 50.8951 67.165 55.3151 67.165C62.8551 67.165 68.9651 61.2117 68.9651 53.865C68.9651 49.59 66.8201 45.5367 63.2451 43.035C62.1401 42.275 61.9126 40.7867 62.6926 39.71C63.4726 38.6334 65.0001 38.4117 66.1051 39.1717C70.9476 42.56 73.8401 48.0384 73.8401 53.865C73.8401 63.8717 65.5526 71.9467 55.3151 71.9467Z" fill="#5580E9"/>
<rect x="0.5" y="0.5" width="77" height="75" stroke="white"/>
</svg>
