<svg width="78" height="78" viewBox="0 0 78 78" fill="none" xmlns="http://www.w3.org/2000/svg">
<path d="M34.255 71.305C33.5075 71.305 32.7925 70.98 32.305 70.33L29.0225 65.9425C28.34 65.0325 27.43 64.5125 26.455 64.4475C25.48 64.3825 24.5049 64.8375 23.7249 65.65C19.0124 70.6875 15.4375 70.265 13.715 69.615C11.96 68.9325 9.00244 66.69 9.00244 59.475V22.88C9.00244 8.45003 13.1624 4.0625 26.7799 4.0625H51.3175C64.935 4.0625 69.095 8.45003 69.095 22.88V36.725C69.095 38.0575 67.99 39.1625 66.6575 39.1625C65.325 39.1625 64.22 38.0575 64.22 36.725V22.88C64.22 11.1475 62.1725 8.9375 51.3175 8.9375H26.7799C15.9249 8.9375 13.8774 11.1475 13.8774 22.88V59.475C13.8774 62.8875 14.7224 64.7725 15.5024 65.065C16.0874 65.2925 17.68 64.9675 20.15 62.335C21.9375 60.45 24.2775 59.4425 26.715 59.5725C29.12 59.7025 31.395 60.97 32.9225 63.0175L36.2375 67.405C37.05 68.4775 36.8225 70.005 35.75 70.8175C35.2625 71.175 34.7425 71.305 34.255 71.305Z" fill="#5580E9"/>
<path d="M59.15 71.9875C52.065 71.9875 46.3125 66.235 46.3125 59.15C46.3125 52.065 52.065 46.3125 59.15 46.3125C66.235 46.3125 71.9875 52.065 71.9875 59.15C71.9875 66.235 66.235 71.9875 59.15 71.9875ZM59.15 51.1875C54.7625 51.1875 51.1875 54.7625 51.1875 59.15C51.1875 63.5375 54.7625 67.1125 59.15 67.1125C63.5375 67.1125 67.1125 63.5375 67.1125 59.15C67.1125 54.7625 63.5375 51.1875 59.15 51.1875Z" fill="#5580E9"/>
<path d="M71.4997 73.9376C70.8822 73.9376 70.2647 73.71 69.7772 73.2225L66.5272 69.9725C65.5847 69.03 65.5847 67.4701 66.5272 66.5276C67.4697 65.5851 69.0297 65.5851 69.9722 66.5276L73.2222 69.7776C74.1647 70.7201 74.1647 72.28 73.2222 73.2225C72.7347 73.71 72.1172 73.9376 71.4997 73.9376Z" fill="#5580E9"/>
<path d="M52 25.1875H26C24.6675 25.1875 23.5625 24.0825 23.5625 22.75C23.5625 21.4175 24.6675 20.3125 26 20.3125H52C53.3325 20.3125 54.4375 21.4175 54.4375 22.75C54.4375 24.0825 53.3325 25.1875 52 25.1875Z" fill="#5580E9"/>
<path d="M48.75 38.1875H29.25C27.9175 38.1875 26.8125 37.0825 26.8125 35.75C26.8125 34.4175 27.9175 33.3125 29.25 33.3125H48.75C50.0825 33.3125 51.1875 34.4175 51.1875 35.75C51.1875 37.0825 50.0825 38.1875 48.75 38.1875Z" fill="#5580E9"/>
<rect x="0.5" y="0.5" width="77" height="77" stroke="white"/>
</svg>
