<svg width="156" height="180" viewBox="0 0 156 180" fill="none" xmlns="http://www.w3.org/2000/svg">
<path d="M48.4418 99.8335C47.9787 88.4574 46.9796 78.5577 45.7953 71.6574C43.8897 60.6545 42.1562 54.3256 42.1562 54.2596C41.9048 53.2917 38.279 49.3742 30.217 49.4964C22.1549 49.6186 22.9191 54.7517 22.9191 54.7517C22.9175 54.9057 22.9376 55.0591 22.9786 55.2076C23.0547 55.4718 30.4551 82.2672 30.1343 116.861C30.1343 117.347 30.0747 118.183 30.1111 118.744C30.1111 118.744 48.7958 119.226 48.7991 118.744C49.4376 115.722 49.12 107.345 48.4418 99.8335Z" fill="#B7D3F3"/>
<path d="M50.791 116.69C50.791 117.172 50.5329 117.558 50.222 117.558C49.911 117.558 49.6662 117.165 49.6629 116.69H33.6379C33.6379 117.172 33.3799 117.558 33.0689 117.558C32.7381 117.558 32.5032 117.152 32.5065 116.666C32.581 107.544 32.1392 98.425 31.1833 89.3525C29.0528 68.9983 25.1193 55.3959 25.0631 55.2076C25.0221 55.0591 25.002 54.9057 25.0035 54.7517C25.0035 54.7517 24.2393 49.6186 32.3014 49.4964C40.3635 49.3742 43.9926 53.2917 44.244 54.2596C44.244 54.3091 45.2365 57.8931 46.5201 64.3376C46.9468 66.4714 47.41 68.9191 47.8831 71.6574C49.0773 78.5577 50.0764 88.4574 50.5296 99.8335C51.2045 107.345 51.4427 113.667 50.791 116.69Z" fill="#D2E3FC"/>
<path d="M31.3125 117.558H94.0889C94.0889 117.558 92.6267 111.665 56.2629 112.531C30.545 113.155 31.3125 117.558 31.3125 117.558Z" fill="#C5DCF8"/>
<path d="M26.2046 179.258C33.4826 142.467 31.6102 119.89 31.6036 119.606C31.5837 119.038 32.6291 118.526 33.1915 118.506C33.7539 118.486 36.2748 118.338 36.5626 118.837C36.9463 119.471 38.4118 147.287 27.5643 179.285L26.2046 179.258Z" fill="#B7D3F3"/>
<path d="M84.8156 179.258C77.5376 142.467 79.41 119.89 79.4199 119.606C79.4199 119.038 78.3911 118.526 77.8287 118.506C77.2663 118.486 74.7487 118.338 74.4576 118.837C74.0772 119.471 72.6083 147.287 83.4592 179.285L84.8156 179.258Z" fill="#B7D3F3"/>
<path d="M96.4341 179.258C89.1561 142.467 91.0252 119.89 91.0351 119.606C91.0516 119.038 90.0063 118.526 89.4439 118.506C88.8815 118.486 86.3639 118.338 86.0728 118.837C85.6924 119.471 84.2268 147.287 95.0744 179.285L96.4341 179.258Z" fill="#B7D3F3"/>
<path d="M37.8987 179.258C45.1767 142.467 43.3043 119.89 43.2944 119.606C43.2944 119.038 44.3232 118.526 44.8856 118.506C45.448 118.486 47.9655 118.338 48.2567 118.837C48.6371 119.471 50.1026 147.287 39.2551 179.285L37.8987 179.258Z" fill="#B7D3F3"/>
<path d="M94.1247 116.032H31.3516C30.6409 116.032 30.0647 116.607 30.0647 117.317V118.159C30.0647 118.869 30.6409 119.444 31.3516 119.444H94.1247C94.8354 119.444 95.4116 118.869 95.4116 118.159V117.317C95.4116 116.607 94.8354 116.032 94.1247 116.032Z" fill="#B7D3F3"/>
<path d="M91.922 62.8379L112.79 58.3258L114.017 61.2986C114.017 61.2986 90.9989 75.0002 88.8354 74.3396C86.6718 73.6789 91.922 62.8379 91.922 62.8379Z" fill="#FFB27D"/>
<path d="M72.9492 157.071C72.7087 157.334 72.5495 157.661 72.4908 158.013C72.4321 158.365 72.4764 158.726 72.6184 159.053C73.0948 160.374 74.6761 161.847 76.5121 163.317C76.747 163.505 76.9554 163.68 77.1374 163.839C77.1837 163.879 77.2333 163.922 77.2763 163.964L77.3855 164.06C79.0958 165.636 78.454 165.996 81.5274 169.193C85.034 172.827 87.449 172.903 88.1438 172.573C88.7227 172.288 87.5417 170.356 86.2349 168.186C86.1721 168.08 86.1092 167.975 86.0431 167.856L85.5236 166.984C83.992 164.371 84.3856 163.142 84.7462 159.254C85.044 156.093 89.6721 141.595 89.6721 141.595L82.9532 140.439C82.9532 140.439 80.9286 151.984 78.6988 153.761C77.5079 154.709 76.1714 154.722 75.0267 155.413C74.9473 155.462 74.8646 155.512 74.7886 155.565C74.1097 155.981 73.4909 156.488 72.9492 157.071Z" fill="#FFB27D"/>
<path d="M72.9492 157.071C72.7087 157.334 72.5495 157.661 72.4908 158.013C72.4321 158.365 72.4764 158.726 72.6184 159.053C73.2039 160.374 74.7455 161.837 76.5187 163.304C76.7503 163.495 76.9554 163.674 77.1374 163.839C77.1837 163.879 77.2333 163.922 77.2763 163.965L77.3855 164.06C79.0958 165.636 78.454 165.996 81.5274 169.193C85.034 172.827 87.449 172.903 88.1438 172.573C88.7227 172.289 87.5417 170.356 86.2349 168.186C83.7822 167.229 81.6264 165.641 79.9857 163.585C77.8718 160.896 76.4658 157.437 75.0234 155.436C74.944 155.485 74.8613 155.535 74.7852 155.588C74.109 155.997 73.4914 156.496 72.9492 157.071Z" fill="#1C468A"/>
<path d="M127.134 152.879C127.548 154.95 130.505 154.603 133.81 153.797C137.115 152.991 136.328 153.949 141.029 153.431C145.73 152.912 147.156 151.161 147.314 150.458C147.443 149.837 145.121 149.619 142.627 149.331C142.316 149.298 142.001 149.259 141.684 149.219C138.872 148.866 136.811 147.055 134.257 145.566C131.835 144.155 128.223 138.411 128.223 138.411L121.775 138.92C121.775 138.92 125.159 144.053 126.469 146.283C127.237 147.604 127.197 149.331 127.101 150.669C127.014 151.404 127.025 152.147 127.134 152.879Z" fill="#FFB27D"/>
<path d="M133.811 153.797C137.119 152.991 136.328 153.949 141.029 153.431C145.73 152.912 147.156 151.161 147.315 150.458C147.444 149.837 145.121 149.619 142.627 149.331L142.604 149.381C140.59 150.672 138.263 151.393 135.872 151.469C132.682 151.548 129.305 150.633 127.101 150.669C127.02 151.403 127.037 152.143 127.151 152.872C127.548 154.937 130.506 154.607 133.811 153.797Z" fill="#1C468A"/>
<path d="M112.79 58.3258C112.79 58.3258 114.325 54.5668 116.015 54.4148C117.706 54.2629 123.082 53.4239 123.465 54.1836C123.849 54.9433 123.465 57.7114 122.311 58.709C121.156 59.7065 114.017 61.3151 114.017 61.3151L112.79 58.3258Z" fill="#FFB27D"/>
<path d="M102.426 111.715L88.5311 149.041C87.1256 149.145 85.7126 149.015 84.3495 148.658C82.4671 148.116 80.3069 146.676 80.3069 146.676C80.3069 146.676 83.754 110.823 90.076 103.368C96.3979 95.9127 102.426 111.715 102.426 111.715Z" fill="#163560"/>
<path d="M47.4661 96.6096C47.4661 96.6096 87.3928 83.1293 96.2985 85.9965C105.204 88.8636 131.938 141.979 131.938 141.979C131.938 141.979 131.336 142.778 129.688 143.396C128.156 143.97 124.448 143.934 124.448 143.934C124.448 143.934 100.318 123.283 97.4464 117.261C94.5749 111.239 93.427 105.502 90.5521 106.073C87.6773 106.645 53.5003 120.128 45.7426 112.098C37.9848 104.068 40.0161 93.6334 40.0161 93.6334L47.4661 96.6096Z" fill="#1C468A"/>
<path d="M70.2299 1.55406C68.5031 0.56311 66.4355 0.467318 64.9898 0.56311C65.3078 0.297831 65.6879 0.117175 66.0947 0.0379166C65.1949 -0.0942103 63.1934 0.794316 63.1934 0.794316C50.7149 -4.0052 48.7531 14.3373 49.0178 18.6017C49.2824 22.8661 49.3089 27.768 43.063 31.5931C30.8227 39.1144 41.1476 52.2446 41.1476 52.2446C41.2435 52.3007 46.8509 61.794 46.8509 61.794C46.5201 58.3488 62.4524 40.1747 70.756 34.7311C72.7773 31.7583 73.4952 26.5095 73.5481 26.0966C73.2173 30.2586 72.4861 32.594 71.8477 33.9086C78.8974 27.4344 74.8052 4.15036 70.2299 1.55406Z" fill="#5580E9"/>
<path d="M70.2798 34.9923C70.3228 34.9923 66.2702 37.1096 63.2234 36.2772C60.3585 35.4976 58.4861 31.7882 58.5258 31.7783C59.7399 31.5371 60.0872 29.8723 60.0641 22.7177L60.6099 22.8234L69.8365 24.6467C69.8365 24.6467 69.6281 27.5469 69.6215 30.2621C69.6148 32.571 69.7538 34.7478 70.2798 34.9923Z" fill="#FFB27D"/>
<path d="M69.8262 24.6466C69.8262 24.6466 69.6178 27.5468 69.6111 30.262C64.447 30.1167 61.7178 25.413 60.5996 22.8067L69.8262 24.6466Z" fill="#ED975D"/>
<path d="M59.6572 21.8191C59.6572 21.8191 56.9544 17.5481 56.3026 13.8915C55.8395 11.2886 57.1694 1.62684 66.8889 3.02078C68.847 3.29173 70.7193 3.99839 72.3673 5.08857C74.4779 6.50893 77.5247 9.58419 74.1173 18.0106L73.234 20.8579L59.6572 21.8191Z" fill="#E6FFE9"/>
<path d="M71.5595 27.233C71.5595 27.233 59.3456 27.4345 59.3192 19.8372C59.2927 12.2399 57.7312 7.14968 65.5287 6.70045C73.3261 6.25121 74.8479 9.14812 75.4533 11.6817C76.0587 14.2152 74.7387 26.9852 71.5595 27.233Z" fill="#FFB27D"/>
<path d="M71.1098 6.51562C71.1098 6.51562 67.7652 15.4342 62.6309 16.7555C57.4965 18.0767 55.2734 16.6993 55.2734 16.6993C57.809 14.4748 59.4899 11.4382 60.0273 8.11104C60.0273 8.11104 68.5856 2.27105 71.1098 6.51562Z" fill="#5580E9"/>
<path d="M70.2793 7.23911C70.2793 7.23911 72.777 9.22102 73.3857 11.1633C73.9944 13.1055 74.269 17.0793 75.4335 16.9438C75.4335 16.9438 77.951 10.8858 75.1027 7.46044C72.1187 3.82364 70.2793 7.23911 70.2793 7.23911Z" fill="#5580E9"/>
<path d="M43.0795 67.8026C41.8753 62.7587 45.9742 52.9714 50.2517 44.8687C54.1322 37.5224 58.1616 31.5635 58.5222 31.7782C68.7578 37.8461 69.6841 32.8022 69.6841 32.8022C69.6841 32.8022 78.9834 34.0343 81.6168 38.5596C84.8853 44.175 88.4118 59.8684 91.9185 62.838C91.3793 64.4895 91.6108 65.3583 92.1798 67.3963C92.3022 67.8323 92.4379 68.2485 92.5868 68.6416C93.0705 69.8914 93.6592 71.098 94.3467 72.2487C92.5636 73.3321 89.1231 75.3867 86.589 73.9003C82.725 71.6409 79.7079 64.767 78.0108 62.0287V61.9989C74.3222 82.8453 79.3341 87.5919 76.7967 89.7885C74.1171 92.1008 70.2862 88.6853 61.8602 92.332C56.3322 94.7268 48.6638 98.1852 43.4997 98.7897C40.7935 99.12 38.7722 98.6344 38.1139 96.8078C36.1852 91.5161 45.3787 77.4214 43.0795 67.8026Z" fill="#1C468A"/>
<path d="M68.8337 22.6285C68.8337 22.6285 69.0587 23.593 71.4803 23.4444C71.4803 23.4444 73.5016 23.3221 73.4388 22.2585C73.4354 22.2585 71.4803 21.5054 68.8337 22.6285Z" fill="white"/>
<path d="M38.1007 96.8212C38.7623 98.6445 40.7803 99.1334 43.4864 98.8031C47.0593 97.2473 62.4987 91.2752 62.3432 87.242C62.0851 81.2533 59.3658 81.0617 61.2879 73.6659C62.8262 67.7202 48.5612 56.6909 46.2885 54.2895C42.0077 62.3922 41.8919 62.7754 43.0961 67.8325C45.3787 77.4217 36.1852 91.5163 38.1007 96.8212Z" fill="#163560"/>
<path d="M36.3539 75.2115C39.0931 71.3732 41.9447 69.3451 43.8205 68.3244C43.3904 67.2113 55.3363 52.5881 55.3363 50.3221C55.3363 48.0561 58.5254 31.7781 58.5254 31.7781C58.5254 31.7781 48.5678 32.3925 45.1239 37.192C40.8133 43.1939 31.858 66.293 36.3539 75.2115Z" fill="#1C468A"/>
<path d="M43.8203 68.3245L63.7125 73.5072L61.8467 76.8533C61.8467 76.8533 37.6373 76.6848 36.3537 75.2017C35.0701 73.7186 43.8203 68.3245 43.8203 68.3245Z" fill="#FFB27D"/>
<path d="M78.0142 62.0387C79.7113 64.777 82.7284 71.6509 86.5923 73.9103C89.1264 75.3868 92.5669 73.3322 94.3501 72.2587C93.6626 71.1081 93.0739 69.9014 92.5901 68.6517C91.1676 68.982 89.4341 69.3916 88.3126 69.7285C86.1358 70.3759 78.0142 62.0387 78.0142 62.0387Z" fill="#163560"/>
<path d="M63.7126 73.5069C63.7126 73.5069 69.9618 71.7397 71.4505 72.1526C72.9392 72.5655 78.0339 75.9381 77.3193 76.8531C76.6047 77.768 72.1089 76.3047 70.0412 76.5822C67.9736 76.8597 66.3757 77.8771 64.8871 77.6557C63.85 77.4822 62.8311 77.2135 61.8435 76.8531L63.7126 73.5069Z" fill="#FFB27D"/>
<path d="M63.7129 73.5072C63.7129 73.5072 66.7697 71.9382 67.6397 71.0463C67.6657 71.0203 67.6973 71.0005 67.732 70.9884C67.7667 70.9763 67.8038 70.9721 67.8403 70.9763C67.8769 70.9804 67.912 70.9927 67.9431 71.0123C67.9743 71.0318 68.0006 71.0581 68.0202 71.0892C68.2517 71.4559 68.4701 72.1661 67.3982 72.8697C65.8566 73.8837 63.7129 73.5072 63.7129 73.5072Z" fill="#FFB27D"/>
<path d="M92.5835 82.2837H63.4382C63.4382 81.6704 63.6822 81.0823 64.1165 80.6487C64.5508 80.215 65.1398 79.9715 65.754 79.9715H92.5769L92.5835 82.2837Z" fill="#07DD90"/>
<path d="M92.5005 50.5899H137.562L126.754 82.2838H81.3982L92.5005 50.5899Z" fill="#E6FFE9"/>
<path d="M138.227 50.5899L127.415 82.2805H82.0632L93.1656 50.5899H138.227Z" fill="#07DD90"/>
<path d="M113.931 66.141C113.775 66.7473 113.428 67.2877 112.942 67.6825C112.455 68.0774 111.855 68.3058 111.228 68.3342C110.014 68.3342 109.243 67.3433 109.538 66.141C109.695 65.5351 110.042 64.9953 110.528 64.6006C111.014 64.206 111.615 63.9771 112.241 63.9477C113.455 63.9477 114.212 64.932 113.931 66.141Z" fill="#E6FFE9"/>
<path d="M138.227 50.5898L127.416 82.2672H97.3806C117.276 75.4891 122.573 54.8146 123.462 50.5766L138.227 50.5898Z" fill="#07DD90"/>
<path d="M7.40716 179.258C7.68025 179.26 7.94531 179.166 8.15625 178.993C8.36719 178.82 8.51066 178.578 8.56172 178.31L14.222 146.269L22.3602 100.2L24.6363 87.3176L18.8403 87.1525L17.8478 94.6309L10.7848 147.181L6.59664 178.33C6.58055 178.446 6.5895 178.563 6.62287 178.675C6.65625 178.787 6.71327 178.89 6.7901 178.978C6.86693 179.066 6.96177 179.137 7.06822 179.185C7.17467 179.233 7.29025 179.258 7.40716 179.258Z" fill="#D2E3FC"/>
<path d="M17.835 94.6474C21.5898 96.299 22.3606 100.213 22.3606 100.213L24.6366 87.3309L18.8406 87.1657L17.835 94.6474Z" fill="#78ACEA"/>
<path d="M151.625 179.258C151.352 179.26 151.086 179.166 150.875 178.993C150.665 178.82 150.521 178.578 150.47 178.31L144.813 146.269L136.672 100.2L134.396 87.3176L140.191 87.1525L141.184 94.6309L148.25 147.181L152.435 178.33C152.451 178.446 152.442 178.563 152.409 178.675C152.376 178.787 152.318 178.89 152.242 178.978C152.165 179.066 152.07 179.137 151.964 179.185C151.857 179.233 151.742 179.258 151.625 179.258Z" fill="#D2E3FC"/>
<path d="M141.197 94.6474C137.442 96.299 136.672 100.213 136.672 100.213L134.396 87.3309L140.191 87.1657L141.197 94.6474Z" fill="#78ACEA"/>
<path d="M152.022 91.8881L3.53659 91.8881C1.85887 91.8881 0.500107 90.5303 0.500107 88.857V85.8049C0.500107 84.1316 1.85887 82.7737 3.53659 82.7737L152.022 82.7737C153.7 82.7737 155.058 84.1315 155.058 85.8049V88.857C155.058 90.5303 153.7 91.8881 152.022 91.8881Z" fill="#D2E3FC" stroke="#B7D3F3"/>
</svg>
