<svg width="55" height="58" viewBox="0 0 55 58" fill="none" xmlns="http://www.w3.org/2000/svg">
<path d="M38.9583 52.2296H16.0416C5.93534 52.2296 2.8645 49.0506 2.8645 38.5887V19.6101C2.8645 9.14812 5.93534 5.96921 16.0416 5.96921H38.9583C49.0645 5.96921 52.1353 9.14812 52.1353 19.6101V38.5887C52.1353 49.0506 49.0645 52.2296 38.9583 52.2296ZM16.0416 9.5277C7.83742 9.5277 6.302 11.1409 6.302 19.6101V38.5887C6.302 47.0579 7.83742 48.6711 16.0416 48.6711H38.9583C47.1624 48.6711 48.6978 47.0579 48.6978 38.5887V19.6101C48.6978 11.1409 47.1624 9.5277 38.9583 9.5277H16.0416Z" fill="#1D53CF"/>
<path d="M43.5416 21.3893H32.0833C31.1437 21.3893 30.3645 20.5827 30.3645 19.6101C30.3645 18.6374 31.1437 17.8308 32.0833 17.8308H43.5416C44.4812 17.8308 45.2603 18.6374 45.2603 19.6101C45.2603 20.5827 44.4812 21.3893 43.5416 21.3893Z" fill="#1D53CF"/>
<path d="M43.5417 30.8786H34.375C33.4354 30.8786 32.6562 30.072 32.6562 29.0994C32.6562 28.1267 33.4354 27.3201 34.375 27.3201H43.5417C44.4813 27.3201 45.2604 28.1267 45.2604 29.0994C45.2604 30.072 44.4813 30.8786 43.5417 30.8786Z" fill="#1D53CF"/>
<path d="M43.5416 40.3679H38.9583C38.0187 40.3679 37.2395 39.5613 37.2395 38.5887C37.2395 37.616 38.0187 36.8094 38.9583 36.8094H43.5416C44.4812 36.8094 45.2603 37.616 45.2603 38.5887C45.2603 39.5613 44.4812 40.3679 43.5416 40.3679Z" fill="#1D53CF"/>
<path d="M19.4792 29.1943C16.248 29.1943 13.6125 26.4661 13.6125 23.1211C13.6125 19.7761 16.248 17.048 19.4792 17.048C22.7105 17.048 25.3459 19.7761 25.3459 23.1211C25.3459 26.4661 22.7105 29.1943 19.4792 29.1943ZM19.4792 20.6065C18.15 20.6065 17.05 21.7452 17.05 23.1211C17.05 24.4971 18.15 25.6358 19.4792 25.6358C20.8084 25.6358 21.9084 24.4971 21.9084 23.1211C21.9084 21.7452 20.8084 20.6065 19.4792 20.6065Z" fill="#1D53CF"/>
<path d="M27.5 41.1508C26.6292 41.1508 25.8729 40.4628 25.7813 39.5376C25.5292 36.9755 23.5354 34.9116 21.0375 34.6744C19.9834 34.5795 18.9292 34.5795 17.875 34.6744C15.3771 34.9116 13.3834 36.9518 13.1313 39.5376C13.0396 40.5103 12.1917 41.2457 11.2521 41.1271C10.3125 41.0322 9.62503 40.1544 9.71669 39.1818C10.1292 34.9116 13.4063 31.5192 17.5542 31.1396C18.8146 31.021 20.0979 31.021 21.3584 31.1396C25.4834 31.5429 28.7834 34.9353 29.1959 39.1818C29.2875 40.1544 28.6 41.0322 27.6604 41.1271C27.6146 41.1508 27.5459 41.1508 27.5 41.1508Z" fill="#1D53CF"/>
</svg>
